<svg viewBox="0 0 2519 848" version="1.1" xmlns="http://www.w3.org/2000/svg" xmlns:xlink="http://www.w3.org/1999/xlink">
    <g id="Page-1" stroke="none" stroke-width="1" fill="none" fill-rule="evenodd">
        <g id="white_logo_red_font" fill-rule="nonzero">
            <g id="Lettrage" transform="translate(1022.000000, 238.000000)" fill="#D23333">
                <path d="M10.1724138,14.5719008 L59,0 L59,304 L0,304 L0,27.6363636 C0,21.6066116 4.06896552,16.0793388 10.1724138,14.5719008 L10.1724138,14.5719008 Z" id="Shape"></path>
                <path d="M174.221646,309 C131.470798,309 98.7789726,276.932701 86.7081448,237.85068 C74.1343659,197.265504 82.1815844,149.164555 112.358654,118.099359 C126.441286,103.568864 145.050479,93.547833 165.671476,91.5436268 C184.78362,89.5394206 204.901667,93.0467815 221.499055,102.566761 C236.58759,111.585689 248.155466,126.116184 255.699733,142.149833 C257.711538,146.158246 259.220392,150.66771 260.729245,155.177174 C261.735147,158.183483 259.723343,160.187689 258.214489,163.193999 C254.19088,170.709772 250.167271,177.724494 245.137759,184.238164 C233.569883,199.26971 218.984299,211.795999 201.88396,219.812824 C184.280669,228.3307 164.665574,231.33701 145.050479,231.33701 C148.068186,238.351731 152.594746,244.865401 159.133111,249.374865 C166.677379,253.884329 175.227548,254.385381 183.777718,253.383278 C191.321985,252.882226 197.86035,250.376969 204.398715,246.869608 C214.457739,241.358041 226.528566,242.861195 234.575785,250.87802 C238.096443,254.385381 241.617101,257.892742 245.137759,260.899051 C247.149564,262.903257 250.167271,264.907464 251.676124,267.412721 C252.682027,268.915876 243.125955,277.934804 242.120052,278.936907 C223.007908,297.475814 199.872155,309 174.221646,309 M174.221646,147.661401 C153.600649,147.661401 144.044577,168.204514 140.523919,185.741318 C156.618356,185.240267 172.712793,182.735009 185.286572,172.713978 C188.80723,170.20872 191.824937,167.202411 194.339692,164.196102 C195.848546,162.692947 196.854448,161.189792 198.363302,159.686638 C198.866253,158.684535 200.375106,158.183483 199.369204,157.18138 C198.866253,156.680328 197.86035,156.179277 197.357399,155.678225 C190.316083,149.665607 183.274767,147.661401 174.221646,147.661401" id="Shape"></path>
                <path d="M1188.5,310 C1174.42784,310 1161.36082,306.986175 1149.29897,301.460829 C1137.23711,295.43318 1126.68299,287.396313 1118.13918,277.35023 C1109.59536,267.304147 1102.55928,255.248848 1098.03608,242.18894 C1093.51289,229.129032 1091,215.064516 1091,201 C1091,186.935484 1093.51289,172.870968 1098.03608,159.81106 C1102.55928,146.751152 1109.59536,134.695853 1118.13918,124.64977 C1126.68299,114.603687 1137.23711,106.064516 1149.29897,100.539171 C1161.36082,94.5115207 1174.42784,92 1188.5,92 C1202.57216,92 1215.63918,95.0138249 1227.70103,100.539171 C1239.76289,106.56682 1250.31701,114.603687 1258.86082,124.64977 C1267.40464,134.695853 1274.44072,146.751152 1278.96392,159.81106 C1283.48711,172.870968 1286,186.935484 1286,201 C1286,215.064516 1283.48711,229.129032 1278.96392,242.18894 C1274.44072,255.248848 1267.40464,267.304147 1258.86082,277.35023 C1250.31701,287.396313 1239.76289,295.935484 1227.70103,301.460829 C1215.63918,306.986175 1202.57216,310 1188.5,310 M1188.5,148.760369 C1176.94072,148.760369 1167.39175,153.78341 1160.35567,163.829493 C1152.81701,174.37788 1149.29897,186.43318 1149.29897,200.497696 C1149.29897,214.562212 1153.31959,226.617512 1160.35567,237.165899 C1167.39175,247.211982 1176.94072,252.235023 1188.5,252.235023 C1200.05928,252.235023 1209.60825,247.211982 1216.64433,237.165899 C1224.18299,226.617512 1227.70103,214.562212 1227.70103,200.497696 C1227.70103,186.43318 1224.18299,174.37788 1216.64433,163.829493 C1209.60825,153.78341 1200.05928,148.760369 1188.5,148.760369" id="Shape"></path>
                <path d="M1439.58795,178.695884 C1439.58795,130.886608 1394.26265,155.042874 1381.16867,183.225183 L1381.16868,304 L1323.75663,304 L1323.75663,186.244717 C1323.75663,158.062407 1310.15904,136.422419 1288,120.821497 L1325.77108,98.1749984 C1344.40482,87.1033767 1349.44096,101.697787 1362.03133,119.311731 C1405.34217,80.0577993 1497,79.0512882 1497,155.546129 L1497,304 L1439.58795,304 L1439.58795,178.695884 Z" id="Shape"></path>
                <path d="M537.754967,300.341604 C524.668874,270.72531 512.086093,241.109017 499,211.492724 C492.960265,225.547914 442.629139,355.558422 416.960265,289.29824 C393.807947,228.55974 370.152318,167.319269 347,106.58077 C370.152318,99.5531746 397.834437,78.4703895 406.89404,105.074856 C418.470199,138.706918 429.543046,172.33898 441.119205,205.971042 C449.172185,183.884315 466.788079,100.055146 490.443709,100.055146 C538.258278,100.055146 541.781457,164.307443 557.384106,205.971042 C566.94702,177.358691 576.509934,149.248311 586.072848,120.63596 C600.165563,78.9723606 609.225166,94.5334638 651,107.082741 C632.880795,153.76605 604.192053,321.424389 537.754967,300.341604 L537.754967,300.341604 Z" id="Shape"></path>
                <path d="M850.550022,283.681082 C839.509994,273.66477 824.957229,257.137856 820.942674,249.124806 C794.848062,198.542431 838.004535,124.922539 764.738894,97.8784966 C746.673394,91.3678939 725.596977,90.3662627 707.531476,94.3727875 C700.004184,96.3760498 674.913211,102.385837 671.902295,111.400518 C669.393197,119.413567 688.964156,149.462503 692.978712,157.976368 C710.542393,145.455978 752.695227,134.938851 756.207964,166.991049 C717.567865,166.991049 671.902295,172.50002 654.338614,213.066083 C633.764016,261.14438 675.91685,310.224309 725.095157,310.224309 C745.167936,310.224309 765.240714,301.710444 779.291659,287.687607 C781.800756,290.692501 783.808034,293.697394 786.317131,296.702288 C789.328048,300.708812 803.378993,315.73328 811.408104,323.74633 C814.419021,326.751223 819.437215,326.751223 822.448132,323.74633 L850.550022,295.700657 C854.062758,291.694132 853.560939,286.685976 850.550022,283.681082 L850.550022,283.681082 Z M725.095157,255.635409 C694.98599,252.1297 713.55331,212.565268 738.142463,212.565268 C773.771645,212.565268 755.706144,259.141118 725.095157,255.635409 L725.095157,255.635409 Z" id="Shape"></path>
                <path d="M1086,121.905886 C1073.44621,114.362646 1060.39026,106.819406 1047.83646,99.2761658 C1030.7633,89.2185125 1027.24824,100.281931 1014.69445,116.374176 C952.427624,55.0224912 862.542454,114.865528 856.014481,190.297928 C849.98866,258.187088 922.800669,345.185789 993.101919,296.909053 C992.599767,319.538773 977.033062,341.665611 953.431928,342.671376 C935.354464,342.671376 914.264089,336.133901 894.178017,319.538773 C890.160803,316.018595 883.632829,316.521477 880.117767,320.544539 L856.516633,347.700203 C852.499419,352.226147 853.503722,358.763621 858.023088,362.2838 C880.619919,378.878928 896.186624,385.416403 907.736115,390.948112 C920.792062,396.982704 935.856615,400 953.431928,400 C1032.77191,400 1050.34722,324.064717 1050.34722,260.701502 C1050.34722,210.916118 1039.80204,155.096142 1086,121.905886 L1086,121.905886 Z M950.921169,253.158262 C900.70599,253.158262 900.70599,149.564432 950.921169,149.564432 C1006.15787,149.564432 1006.15787,253.158262 950.921169,253.158262 L950.921169,253.158262 Z" id="Shape"></path>
            </g>
            <g id="Logo">
                <path d="M424,848 C658.168734,848 848,658.168734 848,424 C848,189.831266 658.168734,0 424,0 C189.831266,0 0,189.831266 0,424 C0,658.168734 189.831266,848 424,848 Z" id="red-circle" fill="#D23333"></path>
                <g id="icon" transform="translate(148.036145, 255.421687)" fill="#FFFFFF">
                    <path d="M125.92775,236.273609 C98.0305131,236.273609 75.4734672,258.64486 75.4734672,286.309898 C75.4734672,313.976018 98.0316036,336.346188 125.92775,336.346188 C153.823897,336.346188 176.382033,313.974937 176.382033,286.309898 C176.382033,258.64486 153.823897,236.273609 125.92775,236.273609 L125.92775,236.273609 Z M125.92775,313.181139 C110.845009,313.181139 98.4318181,300.870786 98.4318181,285.913 C98.4318181,270.955213 110.845009,258.64486 125.92775,258.64486 C141.010491,258.64486 153.423682,270.955213 153.423682,285.913 C153.423682,301.267685 141.410706,313.181139 125.92775,313.181139 L125.92775,313.181139 Z" id="Back-wheel"></path>
                    <path d="M418.509593,236.273609 C390.612356,236.273609 368.05531,258.64486 368.05531,286.309898 C368.05531,313.976018 390.613447,336.346188 418.509593,336.346188 C446.406831,336.346188 468.963876,313.974937 468.963876,286.309898 C468.964967,258.64486 446.406831,236.273609 418.509593,236.273609 L418.509593,236.273609 Z M418.509593,313.181139 C403.426852,313.181139 391.013661,300.870786 391.013661,285.913 C391.013661,270.955213 403.426852,258.64486 418.509593,258.64486 C433.592335,258.64486 446.005526,270.955213 446.005526,285.913 C446.006616,301.267685 433.593425,313.181139 418.509593,313.181139 L418.509593,313.181139 Z" id="Front-wheel"></path>
                    <path d="M125.92775,226.21271 C159.564302,226.21271 186.526979,252.952012 186.526979,286.309898 L357.912546,286.309898 C357.912546,252.952012 384.875222,226.21271 418.511774,226.21271 C452.148327,226.21271 479.111003,252.952012 479.111003,286.309898 L541.978477,284.986181 C541.978477,284.986181 551.321903,281.941848 551.321903,263.938647 C551.321903,245.936527 538.908712,244.21483 538.908712,244.21483 L509.6767,243.817931 C509.6767,243.817931 505.793446,221.314741 481.779463,198.546591 C457.76548,175.778441 423.316529,175.77844 423.316529,175.77844 L6.73363681,177.499056 L6.73363681,259.172617 C6.73363681,259.172617 0.59410726,255.598364 0.193892812,272.277848 C-0.208502642,288.560434 7.26580207,285.913 7.26580207,285.913 L65.3285216,286.309898 C65.3285216,252.868383 92.291198,226.21271 125.92775,226.21271 Z" id="Bottom-frame"></path>
                    <path d="M537.171542,160.424836 L534.902206,131.83298 C534.902206,131.83298 518.653148,79.2597434 479.677495,39.2832712 L485.857098,39.2832712 C468.081487,4.16005695 326.275963,2.20923542 275.955824,0.520028968 C224.700022,-1.20058695 33.2939177,11.9035633 14.3398923,29.1118854 C5.9310269,36.5242685 7.26580207,47.5119854 7.26580207,47.5119854 L7.26580207,162.145452 L423.619678,162.145459 C423.619678,162.145459 461.584131,162.145459 490.720494,185.44244 C516.026211,205.676497 522.08771,236.405548 522.08771,236.405548 L537.170451,236.405548 L536.770237,191.134208 L543.444112,191.531106 C549.984947,181.471289 547.315397,163.866068 542.510642,160.424836 L537.171542,160.424836 Z M142.387796,133.155616 C142.387796,135.406151 140.652807,137.126767 138.383471,137.126767 L53.892421,137.126767 C51.6230852,137.126767 49.8880956,135.406151 49.8880956,133.155616 L49.8880956,50.1583381 C49.8880956,47.9078028 51.6230852,46.1871869 53.892421,46.1871869 L138.383471,46.1871869 C140.652807,46.1871869 142.387796,47.9078028 142.387796,50.1583381 L142.387796,133.155616 L142.387796,133.155616 Z M256.355131,133.553596 C256.355131,135.804131 254.620141,137.524747 252.350805,137.524747 L167.859756,137.524747 C165.59042,137.524747 163.85543,135.804131 163.85543,133.553596 L163.85543,50.5563184 C163.85543,48.3057831 165.59042,46.5851672 167.859756,46.5851672 L252.350805,46.5851672 C254.620141,46.5851672 256.355131,48.3057831 256.355131,50.5563184 L256.355131,133.553596 L256.355131,133.553596 Z M369.76182,133.553596 C369.76182,135.804131 368.026831,137.524747 365.757495,137.524747 L281.266445,137.524747 C278.997109,137.524747 277.26212,135.804131 277.26212,133.553596 L277.26212,50.5563184 C277.26212,48.3057831 278.997109,46.5851672 281.266445,46.5851672 L365.891627,46.5851672 C368.160962,46.5851672 369.895952,48.3057831 369.895952,50.5563184 L369.895952,133.553596 L369.76182,133.553596 L369.76182,133.553596 Z M396.128766,137.679394 C391.724226,137.679394 389.524999,137.100943 389.524999,132.776961 L389.524999,54.2741679 C389.524999,49.950186 389.144494,46.7398171 393.549034,46.7398171 L446.252943,46.7398171 C475.88517,46.7398171 509.120417,104.133477 509.120417,118.940358 C509.121507,133.354345 505.517396,137.679397 501.513071,137.679397 L396.128766,137.679394 Z" id="Top-Frame"></path>
                </g>
            </g>
        </g>
    </g>
</svg>